<!DOCTYPE svg PUBLIC "-//W3C//DTD SVG 1.1//EN" "http://www.w3.org/Graphics/SVG/1.1/DTD/svg11.dtd">
<!-- Uploaded to: SVG Repo, www.svgrepo.com, Transformed by: SVG Repo Mixer Tools -->
<svg width="64px" height="64px" viewBox="-1.6 -1.6 19.20 19.20" version="1.1" xmlns="http://www.w3.org/2000/svg" xmlns:xlink="http://www.w3.org/1999/xlink" fill="#000000" stroke="#000000" stroke-width="0.20800000000000002">
<g id="SVGRepo_bgCarrier" stroke-width="0"/>
<g id="SVGRepo_tracerCarrier" stroke-linecap="round" stroke-linejoin="round" stroke="#CCCCCC" stroke-width="0.256"/>
<g id="SVGRepo_iconCarrier"> <path fill="" d="M4.28 7h2.72l-1.15-1.68c-0.542-0.725-1.36-1.216-2.295-1.319l-0.555-0.001v1.54c-0.011 0.063-0.018 0.136-0.018 0.211 0 0.69 0.56 1.25 1.25 1.25 0.017 0 0.034-0 0.050-0.001z"/> <path fill="" d="M13 7v-0.28c0-0.003 0-0.007 0-0.010 0-0.934-0.749-1.693-1.678-1.71l-4.692-0c0.5 0.62 1.37 2 1.37 2h5z"/> <path fill="" d="M15 5.1c-0.552 0-1 0.448-1 1v1.9h-12v-4c0-0.552-0.448-1-1-1s-1 0.448-1 1v9h2v-2h12v2h2v-6.9c0-0.552-0.448-1-1-1z"/> </g>
</svg>