<!DOCTYPE svg PUBLIC "-//W3C//DTD SVG 1.1//EN" "http://www.w3.org/Graphics/SVG/1.1/DTD/svg11.dtd">
<!-- Uploaded to: SVG Repo, www.svgrepo.com, Transformed by: SVG Repo Mixer Tools -->
<svg fill="#000000" height="64px" width="64px" version="1.1" id="Layer_1" xmlns="http://www.w3.org/2000/svg" xmlns:xlink="http://www.w3.org/1999/xlink" viewBox="0 0 512.00 512.00" xml:space="preserve" stroke="#000000" stroke-width="0.00512">
<g id="SVGRepo_bgCarrier" stroke-width="0"/>
<g id="SVGRepo_tracerCarrier" stroke-linecap="round" stroke-linejoin="round"/>
<g id="SVGRepo_iconCarrier"> <g> <g> <g> <path d="M254.173,106.667c29.461,0,53.333-23.872,53.333-53.333C307.506,23.872,283.634,0,254.173,0 c-29.461,0-53.333,23.872-53.333,53.333C200.839,82.795,224.733,106.667,254.173,106.667z"/> <path d="M405.341,128c29.461,0,53.333-23.872,53.333-53.333c0-29.44-23.872-53.333-53.333-53.333 c-29.461,0-53.333,23.872-53.333,53.333C352.007,104.128,375.901,128,405.341,128z"/> <path d="M106.674,128c29.461,0,53.333-23.872,53.333-53.333c0-29.44-23.872-53.333-53.333-53.333 c-29.44,0-53.333,23.893-53.333,53.333C53.341,104.128,77.234,128,106.674,128z"/> <path d="M498.247,305.387l-13.675-109.333c-3.328-26.624-26.069-46.72-52.907-46.72h-52.672c-5.931,0-11.904,1.045-17.771,3.136 c-5.248,1.856-8.171,7.424-6.741,12.8c1.045,3.947,2.027,7.957,2.517,12.117l14.144,123.904 c1.856,16.405-3.264,32.747-14.059,44.843c-2.347,2.645-5.227,5.12-9.003,7.829c-3.029,2.155-4.715,5.739-4.437,9.429 l8.384,117.355c0.405,5.589,5.035,9.92,10.645,9.92h85.333c5.589,0,10.24-4.331,10.645-9.899l9.963-139.499 c8.405-0.555,16.277-4.395,21.888-10.752C496.562,323.627,499.399,314.496,498.247,305.387z"/> <path d="M163.186,356.053c-4.587-2.88-8.597-6.208-11.925-9.899c-10.795-12.096-15.915-28.437-14.059-44.843l14.144-123.904 c0.512-4.48,1.515-8.789,2.688-12.992c0.768-2.752,0.384-5.696-1.045-8.192c-1.408-2.475-3.776-4.267-6.528-4.992 c-4.928-1.28-9.195-1.877-13.461-1.877H80.327c-26.837,0-49.6,20.075-52.907,46.72L13.746,305.387 c-1.131,9.109,1.685,18.261,7.765,25.152c5.611,6.357,13.483,10.197,21.888,10.752l9.963,139.499 c0.405,5.589,5.035,9.899,10.645,9.899h85.333c5.589,0,10.24-4.331,10.645-9.899l8.213-114.923 C168.498,361.899,166.557,358.123,163.186,356.053z"/> <path d="M349.938,303.723l-14.144-123.925C332.423,150.272,309.042,128,281.415,128h-54.464 c-27.627,0-51.029,22.272-54.379,51.797l-14.144,123.904c-1.195,10.368,2.005,20.651,8.768,28.245 c5.824,6.528,13.547,10.304,21.909,10.773l11.776,159.403c0.405,5.547,5.056,9.877,10.645,9.877h85.333 c5.589,0,10.219-4.309,10.645-9.877l11.776-159.403c8.384-0.469,16.085-4.267,21.909-10.773 C347.933,324.395,351.111,314.069,349.938,303.723z"/> </g> </g> </g> </g>
</svg>